:SAMPLES-PER-SECOND 30
:FULLY-SPECIFIED
:DEGREES
302
root  29.2784 33.4425 -66.5987 2.13057 3.85575 0.881532
RightUpLeg  -1.20229 -24.8191 -0.508892
RightLeg  11.7693 -14.6607 -2.05321
RightFoot  -2.69289 0.008444 0.736994
RightToes  -21.3176 -0.0900092 -0.188748
Spine  3.8735 0.492455 1.37618
Spine1  7.32738 1.22108 2.04503
HEad  25.9183 53.1734 -5.89941
LeftShoulder1  0 -2.42657e-020 -4.95415e-022
LeftArm  -46.0397 11.919 -87.2497
LeftForeArm  63.8616 -12.0538 -2.10257
LeftHand  0.145063 -9.32776 -2.14956
RightShoulder  0 2.42657e-020 1.07489e-018
RightArm  -38.2604 -11.6489 80.0075
RightForeArm  44.0023 22.9883 4.26892
RightHand  -1.6666 21.3204 -8.46948
LeftUpLeg  -4.99961 -5.50574 1.93963
LeftLeg  16.9788 -9.43458 -2.2205
LeftFoot  -3.08442 0.0134815 0.500725
LeftToes  -14.4757 8.72033e-007 1.17809e-007
303
root  29.4253 33.4649 -66.641 2.16713 4.28449 0.874398
RightUpLeg  -1.21823 -24.6939 -0.657622
RightLeg  11.6767 -15.2044 -2.10268
RightFoot  -2.40013 0.00648158 0.687159
RightToes  -21.4979 -0.0917941 -0.191123
Spine  3.86439 0.50607 1.24592
Spine1  7.33662 1.24955 1.82834
HEad  25.443 52.6948 -5.84487
LeftShoulder1  0 -2.42657e-020 -4.95415e-022
LeftArm  -47.5596 12.4996 -86.7319
LeftForeArm  64.414 -11.4616 -1.99276
LeftHand  0.142167 -9.05679 -2.16648
RightShoulder  0 2.42657e-020 1.07489e-018
RightArm  -37.7912 -12.1053 80.9076
RightForeArm  43.9974 23.1268 4.29783
RightHand  -1.64908 21.5745 -8.27179
LeftUpLeg  -4.87556 -5.45596 1.76859
LeftLeg  16.3902 -9.89446 -2.22105
LeftFoot  -2.75536 0.0113733 0.472895
LeftToes  -14.3129 8.72033e-007 1.17809e-007
304
root  29.5813 33.476 -66.6792 2.21396 4.65868 0.928922
RightUpLeg  -1.29745 -25.2779 -0.997922
RightLeg  11.7631 -15.0113 -2.09946
RightFoot  -2.21019 0.00488808 0.631149
RightToes  -21.9146 -0.0936866 -0.193629
Spine  3.88972 0.493859 1.11721
Spine1  7.40354 1.22821 1.60048
HEad  24.8071 52.3453 -6.09261
LeftShoulder1  0 -2.42657e-020 -4.95415e-022
LeftArm  -48.6384 13.0864 -86.3837
LeftForeArm  64.9365 -11.16 -1.93647
LeftHand  0.133849 -8.99092 -2.07386
RightShoulder  0 2.42657e-020 1.07489e-018
RightArm  -36.9776 -12.6159 81.5673
RightForeArm  44.0326 23.2496 4.32349
RightHand  -1.60375 21.9197 -7.89994
LeftUpLeg  -4.82784 -5.7199 1.45843
LeftLeg  16.01 -9.95605 -2.16579
LeftFoot  -2.55656 0.00946515 0.444818
LeftToes  -13.8336 8.72033e-007 1.17809e-007
305
root  29.7359 33.4836 -66.725 2.28609 4.98447 0.972078
RightUpLeg  -1.42861 -25.6709 -1.28452
RightLeg  11.84 -14.9613 -2.11289
RightFoot  -1.97579 0.00327551 0.567702
RightToes  -22.4527 -0.0956782 -0.196244
Spine  3.91788 0.493347 1.0287
Spine1  7.4721 1.2246 1.45028
HEad  24.4261 51.9791 -6.09406
LeftShoulder1  0 -2.42657e-020 -4.95415e-022
LeftArm  -49.1233 13.5985 -86.2248
LeftForeArm  64.8977 -11.058 -1.91796
LeftHand  0.14315 -9.00355 -2.18965
RightShoulder  0 2.42657e-020 1.07489e-018
RightArm  -36.3557 -13.15 81.9653
RightForeArm  44.3469 23.1958 4.31178
RightHand  -1.60321 22.1618 -7.8049
LeftUpLeg  -4.82678 -6.20259 1.14743
LeftLeg  15.6733 -9.79952 -2.07221
LeftFoot  -2.38611 0.00854415 0.410258
LeftToes  -13.4726 8.72033e-007 1.17809e-007
306
root  29.881 33.4901 -66.7733 2.34433 5.22691 0.986063
RightUpLeg  -1.54925 -25.8913 -1.51597
RightLeg  11.8967 -14.9521 -2.12651
RightFoot  -1.77612 0.002095 0.512905
RightToes  -22.8251 -0.097761 -0.19914
Spine  3.94832 0.482462 0.978806
Spine1  7.54608 1.19503 1.37298
HEad  24.2746 51.6582 -5.93496
LeftShoulder1  0 -2.42657e-020 -4.95415e-022
LeftArm  -49.5235 13.9973 -86.2588
LeftForeArm  65.0738 -11.013 -1.90934
LeftHand  0.149549 -9.08878 -2.25305
RightShoulder  0 2.42657e-020 1.07489e-018
RightArm  -36.3811 -13.613 82.2322
RightForeArm  44.8708 22.9031 4.24987
RightHand  -1.57486 22.2936 -7.61224
LeftUpLeg  -4.83213 -6.27886 0.922589
LeftLeg  15.3867 -9.96835 -2.05572
LeftFoot  -2.25508 0.00760463 0.394439
LeftToes  -13.1293 8.72033e-007 1.17809e-007
307
root  30.0223 33.4954 -66.8222 2.39954 5.40736 1.03607
RightUpLeg  -1.753 -26.2142 -1.7999
RightLeg  12.1296 -14.7796 -2.16323
RightFoot  -1.63484 0.00123928 0.468432
RightToes  -23.2202 -0.100128 -0.202521
Spine  3.96701 0.470823 0.938257
Spine1  7.58899 1.16152 1.31237
HEad  24.4111 51.3887 -5.56022
LeftShoulder1  0 -2.42657e-020 -4.95415e-022
LeftArm  -49.6975 14.3403 -86.4298
LeftForeArm  65.0071 -11.0905 -1.92362
LeftHand  0.160649 -9.24898 -2.35757
RightShoulder  0 2.42657e-020 1.07489e-018
RightArm  -37.0206 -14.0296 82.3779
RightForeArm  45.3847 22.3482 4.13398
RightHand  -1.53953 22.3035 -7.43016
LeftUpLeg  -4.91659 -6.16062 0.677417
LeftLeg  15.2769 -10.2715 -2.09709
LeftFoot  -2.11748 0.00713209 0.380743
LeftToes  -12.8029 8.72033e-007 1.17809e-007
308
root  30.1514 33.4971 -66.8708 2.47118 5.5278 1.09794
RightUpLeg  -1.98353 -26.4104 -2.05001
RightLeg  12.3512 -14.6765 -2.20585
RightFoot  -1.50502 0.00067037 0.428786
RightToes  -23.6644 -0.102161 -0.205612
Spine  3.99306 0.420095 0.906705
Spine1  7.64132 1.04887 1.26376
HEad  24.3326 51.1961 -5.27951
LeftShoulder1  0 -2.42657e-020 -4.95415e-022
LeftArm  -49.2992 14.6411 -86.6321
LeftForeArm  64.5356 -11.3328 -1.96896
LeftHand  0.169828 -9.39461 -2.43837
RightShoulder  0 2.42657e-020 1.07489e-018
RightArm  -38.3894 -14.2498 82.4893
RightForeArm  46.2578 21.5317 3.96498
RightHand  -1.52901 22.3214 -7.37066
LeftUpLeg  -5.00696 -5.89601 0.446981
LeftLeg  15.1583 -10.6199 -2.14452
LeftFoot  -1.99094 0.00639706 0.368144
LeftToes  -12.4194 8.72033e-007 1.17809e-007
309
root  30.271 33.4947 -66.919 2.55524 5.57225 1.15975
RightUpLeg  -2.20593 -26.3963 -2.25073
RightLeg  12.503 -14.709 -2.25003
RightFoot  -1.3984 0.000227666 0.397941
RightToes  -23.8913 -0.10408 -0.207349
Spine  4.01447 0.36842 0.872253
Spine1  7.67953 0.930607 1.21388
HEad  24.1308 51.0449 -4.88777
LeftShoulder1  0 -2.42657e-020 -4.95415e-022
LeftArm  -48.7399 14.7777 -86.8571
LeftForeArm  64.1037 -11.6274 -2.02384
LeftHand  0.184464 -9.46741 -2.5992
RightShoulder  0 2.42657e-020 1.07489e-018
RightArm  -40.0499 -14.4011 82.5058
RightForeArm  47.0768 20.6329 3.78136
RightHand  -1.5109 22.1594 -7.33645
LeftUpLeg  -5.04815 -5.82089 0.216272
LeftLeg  14.9555 -10.78 -2.13699
LeftFoot  -1.86173 0.00562302 0.346061
LeftToes  -12.1141 8.72033e-007 1.17809e-007
310
root  30.3757 33.4889 -66.9636 2.60883 5.54692 1.1998
RightUpLeg  -2.38888 -26.2627 -2.39767
RightLeg  12.6104 -14.8285 -2.29598
RightFoot  -1.29618 -0.000101668 0.36876
RightToes  -24.0403 -0.105731 -0.209296
Spine  4.02708 0.310341 0.84245
Spine1  7.69764 0.79476 1.17794
HEad  23.4872 50.9514 -4.50244
LeftShoulder1  0 -2.42657e-020 -4.95415e-022
LeftArm  -48.2457 14.8304 -87.1169
LeftForeArm  63.778 -11.9913 -2.0913
LeftHand  0.194667 -9.53812 -2.70493
RightShoulder  0 2.42657e-020 1.07489e-018
RightArm  -41.6127 -14.596 82.3602
RightForeArm  47.8584 19.7434 3.60189
RightHand  -1.52868 21.9683 -7.49622
LeftUpLeg  -5.05492 -5.31384 0.0295427
LeftLeg  14.8015 -11.159 -2.1801
LeftFoot  -1.8447 0.0025045 0.351381
LeftToes  -11.4651 8.72033e-007 1.17809e-007
311
root  30.4727 33.485 -67.007 2.684 5.46899 1.27345
RightUpLeg  -2.60282 -26.1613 -2.56935
RightLeg  12.7376 -14.8415 -2.3313
RightFoot  -1.18668 -0.000445959 0.334683
RightToes  -24.3408 -0.106955 -0.211371
Spine  4.02524 0.257738 0.799314
Spine1  7.68503 0.666309 1.12458
HEad  22.5571 50.8512 -4.00152
LeftShoulder1  0 -2.42657e-020 -4.95415e-022
LeftArm  -47.6098 14.771 -87.374
LeftForeArm  63.1487 -12.3836 -2.16489
LeftHand  0.206756 -9.62503 -2.82736
RightShoulder  0 2.42657e-020 1.07489e-018
RightArm  -43.3618 -14.8043 82.1386
RightForeArm  48.8139 18.9072 3.43462
RightHand  -1.56098 21.8111 -7.72106
LeftUpLeg  -4.96917 -5.26808 -0.189431
LeftLeg  14.3992 -11.173 -2.10201
LeftFoot  -1.6865 0.00170974 0.315844
LeftToes  -11.0332 8.72033e-007 1.17809e-007
312
root  30.5571 33.4835 -67.0368 2.75769 5.31493 1.33659
RightUpLeg  -2.78066 -26.1468 -2.73545
RightLeg  12.807 -14.6813 -2.32477
RightFoot  -1.08577 -0.00118187 0.298893
RightToes  -24.5129 -0.10787 -0.213251
Spine  4.00265 0.21487 0.752844
Spine1  7.63158 0.553417 1.07239
HEad  21.5488 50.8342 -3.53916
LeftShoulder1  0 -2.42657e-020 -4.95415e-022
LeftArm  -46.911 14.6742 -87.6281
LeftForeArm  62.4791 -12.7964 -2.24255
LeftHand  0.212813 -9.73238 -2.87128
RightShoulder  0 2.42657e-020 1.07489e-018
RightArm  -44.8824 -15.1259 81.8234
RightForeArm  49.5748 18.2275 3.29997
RightHand  -1.57732 21.681 -7.85561
LeftUpLeg  -4.85334 -4.58234 -0.328624
LeftLeg  14.0186 -11.7333 -2.12578
LeftFoot  -1.50569 0.000526094 0.290081
LeftToes  -10.7714 8.72033e-007 1.17809e-007
